<svg width="150" height="150" viewBox="0 0 454 377" fill="none" xmlns="http://www.w3.org/2000/svg">
<path d="M68.4043 343.605V342.605L70.2043 341.905C71.5377 341.372 72.4377 340.705 72.9043 339.905C73.4377 339.105 73.7043 338.039 73.7043 336.705V284.505C73.7043 283.105 73.4377 282.005 72.9043 281.205C72.4377 280.405 71.5377 279.772 70.2043 279.305L68.4043 278.605V277.605H97.1043C105.238 277.605 111.104 279.105 114.704 282.105C118.304 285.039 120.104 288.772 120.104 293.305C120.104 296.705 118.771 299.805 116.104 302.605C113.504 305.339 109.004 307.272 102.604 308.405C109.938 309.205 115.304 311.139 118.704 314.205C122.104 317.205 123.804 320.872 123.804 325.205C123.804 327.339 123.338 329.505 122.404 331.705C121.471 333.839 119.871 335.805 117.604 337.605C115.404 339.405 112.371 340.872 108.504 342.005C104.638 343.072 99.7377 343.605 93.8043 343.605H68.4043ZM88.5043 308.305H92.8043C97.271 308.305 100.471 307.272 102.404 305.205C104.404 303.139 105.404 299.539 105.404 294.405C105.404 289.072 104.504 285.272 102.704 283.005C100.904 280.739 97.971 279.605 93.9043 279.605H88.5043V308.305ZM88.5043 341.605H93.5043C98.5043 341.605 102.204 340.272 104.604 337.605C107.071 334.939 108.304 330.772 108.304 325.105C108.304 319.772 107.138 315.972 104.804 313.705C102.471 311.439 98.6377 310.305 93.3043 310.305H88.5043V341.605ZM230.734 345.405C224.267 345.405 218.401 344.105 213.134 341.505C207.934 338.839 203.801 334.905 200.734 329.705C197.667 324.505 196.134 318.139 196.134 310.605C196.134 304.872 197.067 299.839 198.934 295.505C200.801 291.172 203.334 287.539 206.534 284.605C209.801 281.672 213.534 279.472 217.734 278.005C222.001 276.539 226.501 275.805 231.234 275.805C235.034 275.805 238.534 276.239 241.734 277.105C244.934 277.972 247.934 279.172 250.734 280.705L251.134 293.005H250.134L245.134 285.005C244.467 283.739 243.734 282.605 242.934 281.605C242.134 280.539 241.134 279.739 239.934 279.205C238.934 278.739 237.934 278.405 236.934 278.205C236.001 277.939 234.801 277.805 233.334 277.805C229.467 277.805 225.934 278.839 222.734 280.905C219.601 282.972 217.067 286.405 215.134 291.205C213.267 295.939 212.334 302.439 212.334 310.705C212.334 318.905 213.234 325.405 215.034 330.205C216.834 334.939 219.267 338.339 222.334 340.405C225.467 342.405 228.967 343.405 232.834 343.405C234.967 343.405 236.667 343.272 237.934 343.005C239.201 342.672 240.467 342.205 241.734 341.605C243.001 341.072 243.967 340.305 244.634 339.305C245.301 338.239 245.901 337.105 246.434 335.905L250.834 326.105H251.834L251.534 340.405C248.734 341.872 245.601 343.072 242.134 344.005C238.667 344.939 234.867 345.405 230.734 345.405ZM270.988 345.105C267.121 345.105 263.855 344.005 261.188 341.805C258.588 339.605 257.288 336.439 257.288 332.305C257.288 329.172 258.888 326.305 262.088 323.705C265.288 321.039 270.321 319.039 277.188 317.705C278.255 317.505 279.455 317.305 280.788 317.105C282.121 316.839 283.521 316.572 284.988 316.305V308.405C284.988 303.872 284.421 300.705 283.288 298.905C282.221 297.039 280.521 296.105 278.188 296.105C276.588 296.105 275.321 296.639 274.388 297.705C273.455 298.705 272.855 300.472 272.588 303.005L272.388 304.105C272.255 306.972 271.555 309.072 270.288 310.405C269.021 311.739 267.455 312.405 265.588 312.405C263.855 312.405 262.421 311.872 261.288 310.805C260.155 309.739 259.588 308.305 259.588 306.505C259.588 303.772 260.521 301.472 262.388 299.605C264.321 297.739 266.855 296.339 269.988 295.405C273.121 294.472 276.521 294.005 280.188 294.005C286.121 294.005 290.688 295.472 293.888 298.405C297.155 301.272 298.788 305.972 298.788 312.505V334.605C298.788 337.605 300.188 339.105 302.988 339.105H305.188L306.088 339.905C304.821 341.505 303.421 342.739 301.888 343.605C300.421 344.472 298.321 344.905 295.588 344.905C292.655 344.905 290.321 344.239 288.588 342.905C286.921 341.505 285.821 339.672 285.288 337.405C283.288 339.539 281.221 341.372 279.088 342.905C277.021 344.372 274.321 345.105 270.988 345.105ZM277.088 339.005C278.421 339.005 279.655 338.705 280.788 338.105C281.988 337.439 283.388 336.439 284.988 335.105V318.305C284.321 318.439 283.655 318.572 282.988 318.705C282.321 318.839 281.555 318.972 280.688 319.105C277.621 319.905 275.155 321.272 273.288 323.205C271.488 325.072 270.588 327.605 270.588 330.805C270.588 333.539 271.221 335.605 272.488 337.005C273.755 338.339 275.288 339.005 277.088 339.005ZM307.95 343.605V342.605L309.45 342.205C310.784 341.805 311.684 341.205 312.15 340.405C312.684 339.605 312.95 338.572 312.95 337.305V306.005C312.95 304.539 312.684 303.472 312.15 302.805C311.684 302.072 310.784 301.572 309.45 301.305L307.95 300.905V299.905L325.15 294.105L326.15 295.105L327.05 303.705V304.505C327.984 302.639 329.184 300.939 330.65 299.405C332.184 297.805 333.85 296.505 335.65 295.505C337.517 294.505 339.35 294.005 341.15 294.005C343.684 294.005 345.617 294.705 346.95 296.105C348.284 297.505 348.95 299.272 348.95 301.405C348.95 303.672 348.284 305.439 346.95 306.705C345.684 307.905 344.15 308.505 342.35 308.505C339.55 308.505 337.084 307.105 334.95 304.305L334.75 304.105C334.084 303.172 333.317 302.672 332.45 302.605C331.584 302.472 330.784 302.872 330.05 303.805C329.384 304.405 328.817 305.139 328.35 306.005C327.95 306.805 327.55 307.739 327.15 308.805V336.705C327.15 339.372 328.317 341.039 330.65 341.705L333.85 342.605V343.605H307.95ZM368.415 345.105C365.148 345.105 362.215 344.705 359.615 343.905C357.015 343.172 354.615 342.239 352.415 341.105L352.515 329.205H353.515L356.915 335.205C358.381 337.872 359.981 339.872 361.715 341.205C363.515 342.472 365.781 343.105 368.515 343.105C371.715 343.105 374.281 342.405 376.215 341.005C378.215 339.539 379.215 337.605 379.215 335.205C379.215 333.005 378.515 331.205 377.115 329.805C375.715 328.405 373.115 327.139 369.315 326.005L365.115 324.705C361.048 323.505 357.848 321.639 355.515 319.105C353.181 316.572 352.015 313.472 352.015 309.805C352.015 305.405 353.748 301.672 357.215 298.605C360.681 295.539 365.648 294.005 372.115 294.005C374.715 294.005 377.148 294.305 379.415 294.905C381.748 295.439 383.981 296.272 386.115 297.405L385.515 308.205H384.515L381.015 302.005C379.748 299.805 378.481 298.272 377.215 297.405C376.015 296.472 374.181 296.005 371.715 296.005C369.448 296.005 367.315 296.639 365.315 297.905C363.315 299.172 362.315 300.972 362.315 303.305C362.315 305.572 363.148 307.372 364.815 308.705C366.548 310.039 369.081 311.272 372.415 312.405L376.915 313.705C381.715 315.172 385.148 317.205 387.215 319.805C389.281 322.339 390.315 325.405 390.315 329.005C390.315 333.872 388.381 337.772 384.515 340.705C380.715 343.639 375.348 345.105 368.415 345.105Z" fill="#000408"/>
<path d="M159.079 345.405C154.813 345.405 150.779 344.639 146.979 343.105L142.579 349.305C146.913 350.372 151.846 351.505 157.379 352.705C162.979 353.972 168.479 355.172 173.879 356.305C176.479 356.839 178.413 357.072 179.679 357.005C181.013 357.005 182.213 356.672 183.279 356.005L185.979 354.305L186.779 355.405L181.679 360.905C180.213 362.439 178.779 363.672 177.379 364.605C175.979 365.605 174.413 366.105 172.679 366.105C171.279 366.105 169.279 365.872 166.679 365.405C164.079 365.005 161.179 364.472 157.979 363.805C154.779 363.205 151.579 362.539 148.379 361.805C145.179 361.139 142.279 360.539 139.679 360.005C138.613 359.739 137.646 359.672 136.779 359.805C135.913 360.005 135.079 360.539 134.279 361.405L133.079 362.605L131.879 361.705L144.479 341.905C139.613 339.439 135.579 335.605 132.379 330.405C129.179 325.139 127.579 318.539 127.579 310.605C127.579 304.872 128.446 299.839 130.179 295.505C131.913 291.172 134.279 287.572 137.279 284.705C140.279 281.772 143.646 279.572 147.379 278.105C151.179 276.572 155.079 275.805 159.079 275.805C163.146 275.805 167.046 276.539 170.779 278.005C174.579 279.405 177.946 281.572 180.879 284.505C183.879 287.372 186.246 291.005 187.979 295.405C189.713 299.739 190.579 304.805 190.579 310.605C190.579 316.272 189.713 321.305 187.979 325.705C186.246 330.039 183.879 333.672 180.879 336.605C177.946 339.472 174.579 341.672 170.779 343.205C167.046 344.672 163.146 345.405 159.079 345.405ZM159.079 343.305C162.746 343.305 165.713 342.339 167.979 340.405C170.246 338.405 171.879 335.039 172.879 330.305C173.946 325.505 174.479 318.939 174.479 310.605C174.479 302.205 173.946 295.639 172.879 290.905C171.879 286.105 170.246 282.739 167.979 280.805C165.713 278.805 162.746 277.805 159.079 277.805C155.479 277.805 152.546 278.805 150.279 280.805C148.013 282.739 146.346 286.105 145.279 290.905C144.279 295.639 143.779 302.205 143.779 310.605C143.779 318.939 144.279 325.505 145.279 330.305C146.346 335.039 148.013 338.405 150.279 340.405C152.546 342.339 155.479 343.305 159.079 343.305Z" fill="#7AA2F0"/>
<path d="M203.067 195.592C276.172 205.269 367.842 200.431 439.786 176.238C385.016 218.817 250.643 213.737 190.303 204.06C239.039 86.7254 103.274 72.2099 155.492 194.383L25.5285 161.723C25.5285 124.95 27.8492 77.0484 0 107.289C8.12269 67.3713 8.12269 56.4847 53.3777 50.4364C123.001 -12.4642 227.435 -19.722 271.53 46.8077C225.115 2.05128 128.803 -7.62582 60.34 57.6943C58.0192 58.904 57.4391 60.1136 49.8965 61.3232C34.8115 63.7425 20.8869 66.1617 15.085 85.5158C34.5795 78.7419 35.9719 128.659 34.8115 154.465L140.407 181.077C125.322 135.111 136.925 100.031 168.256 100.031C194.945 100.031 226.275 135.111 203.067 195.592Z" fill="black"/>
<path d="M435.145 114.547C447.909 135.111 446.748 155.674 444.428 172.609C464.154 153.255 454.871 75.4138 365.522 55.2751C331.174 47.5334 277.332 44.8471 187.983 57.6943C154.331 62.5328 90.1312 74.8372 58.0195 71.0002C93.9915 79.4678 148.577 72.7333 200.747 67.3715C268.702 60.3873 375.965 48.0172 420.06 95.193C412.633 100.999 410.777 104.418 410.777 115.757C410.777 121.563 410.003 127.853 409.616 130.272L435.145 114.547Z" fill="black"/>
<path d="M237.879 101.241C219.313 101.241 219.313 102.45 214.671 108.499L241.36 125.433L328.389 130.272C301.7 118.176 281.386 108.078 268.049 104.87C255.981 101.967 249.156 101.241 237.879 101.241Z" fill="black"/>
<path d="M424.701 100.032C418.899 102.451 414.258 107.289 416.579 119.386L431.663 109.709C430.889 108.096 428.414 103.902 424.701 100.032Z" fill="#F7FBFF"/>
<path d="M243.68 120.595L306.341 125.433C270.369 112.127 265.728 104.87 223.954 107.289L243.68 120.595Z" fill="#F7FBFF"/>
</svg>
